<?xml version="1.0" encoding="utf-8"?>
<!-- Generator: Adobe Illustrator 16.0.4, SVG Export Plug-In . SVG Version: 6.00 Build 0)  -->
<!DOCTYPE svg PUBLIC "-//W3C//DTD SVG 1.1 Basic//EN" "http://www.w3.org/Graphics/SVG/1.1/DTD/svg11-basic.dtd">
<svg version="1.1" baseProfile="basic" id="Layer_1"
	 xmlns="http://www.w3.org/2000/svg" xmlns:xlink="http://www.w3.org/1999/xlink" x="0px" y="0px" width="288px" height="503.724px"
	 viewBox="0 0 288 503.724" xml:space="preserve">
<g>
	<path d="M36,18.334c-9.757,0-17.666,7.908-17.666,17.666c0,9.757,7.909,17.666,17.666,17.666c9.758,0,17.666-7.909,17.666-17.666
		C53.666,26.242,45.758,18.334,36,18.334z M39.808,36.006h-2.544c0,4.064,0,9.071,0,9.071h-3.771c0,0,0-4.955,0-9.071h-1.792v-3.203
		h1.792v-2.074c0-1.484,0.706-3.806,3.805-3.806l2.792,0.012v3.11c0,0-1.697,0-2.025,0c-0.33,0-0.8,0.164-0.8,0.874v1.884h2.875
		L39.808,36.006z"/>
</g>
<g>
	<path d="M180.5,18.334c-9.757,0-17.666,7.908-17.666,17.666c0,9.757,7.909,17.666,17.666,17.666
		c9.758,0,17.666-7.909,17.666-17.666C198.166,26.242,190.258,18.334,180.5,18.334z M181.783,39.78
		c-1.055,0-2.044-0.567-2.383-1.215c0,0-0.567,2.246-0.687,2.68c-0.422,1.533-1.664,3.066-1.76,3.19
		c-0.067,0.088-0.217,0.061-0.232-0.056c-0.027-0.194-0.345-2.128,0.029-3.705c0.188-0.791,1.254-5.312,1.254-5.312
		s-0.312-0.622-0.312-1.541c0-1.446,0.839-2.523,1.882-2.523c0.887,0,1.314,0.664,1.314,1.462c0,0.892-0.568,2.226-0.861,3.46
		c-0.244,1.034,0.519,1.878,1.54,1.878c1.847,0,3.091-2.372,3.091-5.185c0-2.136-1.438-3.736-4.058-3.736
		c-2.957,0-4.8,2.207-4.8,4.671c0,0.85,0.251,1.448,0.643,1.911c0.181,0.213,0.206,0.301,0.141,0.545
		c-0.048,0.178-0.153,0.61-0.198,0.78c-0.064,0.249-0.266,0.336-0.489,0.244c-1.361-0.555-1.995-2.047-1.995-3.726
		c0-2.768,2.334-6.089,6.967-6.089c3.723,0,6.174,2.693,6.174,5.586C187.044,36.922,184.917,39.78,181.783,39.78z"/>
</g>
<g>
	<path d="M108.5,18.334c-9.757,0-17.666,7.908-17.666,17.666c0,9.757,7.909,17.666,17.666,17.666
		c9.758,0,17.666-7.909,17.666-17.666C126.166,26.242,118.258,18.334,108.5,18.334z M114.916,32.539
		c0.008,0.149,0.012,0.298,0.012,0.45c0,4.602-3.504,9.908-9.909,9.908c-1.967,0-3.797-0.576-5.339-1.564
		c0.273,0.031,0.55,0.048,0.831,0.048c1.632,0,3.133-0.556,4.324-1.489c-1.523-0.029-2.81-1.036-3.252-2.42
		c0.212,0.041,0.431,0.062,0.654,0.062c0.318,0,0.626-0.043,0.918-0.121c-1.592-0.322-2.794-1.729-2.794-3.415v-0.043
		c0.47,0.26,1.007,0.416,1.578,0.435c-0.936-0.624-1.549-1.691-1.549-2.899c0-0.638,0.172-1.237,0.471-1.75
		c1.717,2.107,4.284,3.493,7.178,3.638c-0.059-0.254-0.089-0.52-0.089-0.793c0-1.924,1.559-3.481,3.481-3.481
		c1.001,0,1.907,0.422,2.542,1.099c0.793-0.156,1.539-0.446,2.212-0.847c-0.262,0.815-0.812,1.497-1.53,1.928
		c0.704-0.083,1.376-0.271,1.999-0.547C116.188,31.434,115.598,32.047,114.916,32.539z"/>
</g>
<g>
	<path d="M253.647,31.245c-0.233-1.786-1.696-3.004-3.033-2.75c-1.312,0.25-1.805,1.759-1.766,2.57
		c0.087,1.801,1.528,3.036,2.89,3.079C253.1,34.183,253.883,33.033,253.647,31.245z M252.643,38.011
		c-0.4-0.129-0.841-0.205-1.314-0.209c-2.027-0.022-3.746,1.28-3.746,2.792c0,1.542,1.466,2.827,3.493,2.827
		c2.852,0,3.845-1.205,3.845-2.747c0-0.188-0.023-0.37-0.065-0.545C254.631,39.256,253.743,38.777,252.643,38.011z M252.918,18.334
		c-9.757,0-17.666,7.908-17.666,17.666c0,9.757,7.909,17.666,17.666,17.666c9.758,0,17.666-7.909,17.666-17.666
		C270.584,26.242,262.676,18.334,252.918,18.334z M251.254,44.254c-2.935,0-5.411-1.192-5.411-3.1c0-1.938,2.055-3.957,4.988-3.957
		c0.32,0,0.614-0.002,0.915-0.002c-0.4-0.39-0.725-0.715-0.725-1.306c0-0.351,0.111-0.667,0.268-0.965
		c-0.158,0.01-0.322,0.062-0.49,0.062c-2.409,0-3.812-1.613-3.812-3.734c0-2.08,2.136-3.807,4.698-3.807c1.321,0,5.05,0,5.05,0
		l-1.128,1h-1.327c0.938,1,1.434,1.568,1.434,2.785c0,1.117-0.618,1.944-1.491,2.626c-0.854,0.668-1.014,0.946-1.014,1.513
		c0,0.483,1.018,1.203,1.486,1.554c1.631,1.223,1.96,1.995,1.96,3.523C256.654,42.356,254.598,44.254,251.254,44.254z
		 M262.365,31.208h-2.309v2.306h-1.153v-2.306h-2.308v-1.154h2.308v-2.309h1.153v2.309h2.309V31.208z"/>
</g>
<g>
	<path d="M35.945,90.833c-9.757,0-17.666,7.909-17.666,17.667c0,9.757,7.909,17.666,17.666,17.666
		c9.758,0,17.666-7.909,17.666-17.666C53.611,98.743,45.703,90.833,35.945,90.833z M35.945,124.753
		c-8.977,0-16.252-7.276-16.252-16.253s7.275-16.253,16.252-16.253s16.253,7.276,16.253,16.253S44.922,124.753,35.945,124.753z
		 M37.236,103.495c0-0.71,0.471-0.874,0.801-0.874c0.328,0,2.025,0,2.025,0v-3.11l-2.791-0.012c-3.1,0-3.805,2.321-3.805,3.806
		v2.074h-1.793v3.203h1.793c0,4.116,0,9.071,0,9.071h3.77c0,0,0-5.007,0-9.071h2.545l0.33-3.203h-2.875V103.495z"/>
</g>
<g>
	<path d="M116.149,101.83c-0.673,0.4-1.419,0.69-2.212,0.847c-0.635-0.677-1.541-1.099-2.542-1.099
		c-1.923,0-3.481,1.558-3.481,3.481c0,0.273,0.03,0.539,0.089,0.793c-2.894-0.145-5.461-1.53-7.178-3.638
		c-0.299,0.513-0.471,1.112-0.471,1.75c0,1.208,0.613,2.275,1.549,2.899c-0.571-0.019-1.108-0.175-1.578-0.435v0.043
		c0,1.687,1.202,3.093,2.794,3.415c-0.292,0.078-0.6,0.121-0.918,0.121c-0.224,0-0.442-0.021-0.654-0.062
		c0.442,1.384,1.729,2.391,3.252,2.42c-1.191,0.934-2.692,1.489-4.324,1.489c-0.281,0-0.558-0.017-0.831-0.048
		c1.542,0.988,3.372,1.564,5.339,1.564c6.405,0,9.909-5.307,9.909-9.908c0-0.152-0.004-0.301-0.012-0.45
		c0.682-0.491,1.271-1.104,1.738-1.803c-0.623,0.275-1.295,0.464-1.999,0.547C115.337,103.327,115.887,102.645,116.149,101.83z
		 M108.5,90.934c-9.757,0-17.666,7.909-17.666,17.667c0,9.757,7.909,17.666,17.666,17.666c9.758,0,17.666-7.909,17.666-17.666
		C126.166,98.843,118.258,90.934,108.5,90.934z M108.5,124.854c-8.977,0-16.252-7.276-16.252-16.253s7.275-16.253,16.252-16.253
		s16.253,7.276,16.253,16.253S117.477,124.854,108.5,124.854z"/>
</g>
<g>
	<path d="M180.851,99.988c-4.633,0-6.967,3.321-6.967,6.089c0,1.679,0.634,3.171,1.995,3.726c0.224,0.092,0.425,0.005,0.489-0.244
		c0.045-0.17,0.15-0.603,0.198-0.78c0.065-0.244,0.04-0.332-0.141-0.545c-0.392-0.463-0.643-1.062-0.643-1.911
		c0-2.464,1.843-4.671,4.8-4.671c2.619,0,4.057,1.601,4.057,3.736c0,2.812-1.244,5.185-3.091,5.185c-1.021,0-1.784-0.844-1.54-1.878
		c0.293-1.234,0.86-2.568,0.86-3.46c0-0.798-0.427-1.462-1.313-1.462c-1.043,0-1.882,1.077-1.882,2.523
		c0,0.919,0.312,1.541,0.312,1.541s-1.066,4.521-1.254,5.312c-0.374,1.577-0.057,3.511-0.029,3.705
		c0.016,0.116,0.165,0.144,0.232,0.056c0.096-0.124,1.338-1.657,1.76-3.19c0.119-0.434,0.687-2.68,0.687-2.68
		c0.339,0.647,1.328,1.215,2.382,1.215c3.134,0,5.261-2.857,5.261-6.681C187.025,102.681,184.574,99.988,180.851,99.988z
		 M180.5,90.934c-9.757,0-17.666,7.909-17.666,17.667c0,9.757,7.909,17.666,17.666,17.666c9.758,0,17.666-7.909,17.666-17.666
		C198.166,98.843,190.258,90.934,180.5,90.934z M180.5,124.854c-8.977,0-16.252-7.276-16.252-16.253s7.275-16.253,16.252-16.253
		s16.253,7.276,16.253,16.253S189.477,124.854,180.5,124.854z"/>
</g>
<g>
	<path d="M260.057,100.22h-1.153v2.309h-2.308v1.154h2.308v2.306h1.153v-2.306h2.309v-1.154h-2.309V100.22z M254.694,109.423
		c-0.469-0.351-1.486-1.071-1.486-1.554c0-0.566,0.16-0.845,1.014-1.513c0.873-0.682,1.491-1.259,1.491-2.376
		c0-1.217-0.496-1.535-1.434-2.535h1.327l1.128-1c0,0-3.729,0-5.05,0c-2.562,0-4.698,1.477-4.698,3.557
		c0,2.121,1.403,3.609,3.812,3.609c0.168,0,0.332-0.114,0.49-0.125c-0.156,0.299-0.268,0.583-0.268,0.934
		c0,0.59,0.324,0.9,0.725,1.29c-0.301,0-0.595-0.006-0.915-0.006c-2.934,0-4.988,2.015-4.988,3.953c0,1.908,2.477,3.098,5.411,3.098
		c3.344,0,5.4-1.899,5.4-3.809C256.654,111.419,256.325,110.646,254.694,109.423z M251.738,106.644
		c-1.361-0.043-2.803-1.277-2.89-3.079c-0.039-0.811,0.453-2.32,1.766-2.57c1.337-0.255,2.8,0.963,3.033,2.75
		C253.883,105.533,253.1,106.683,251.738,106.644z M251.075,115.92c-2.027,0-3.493-1.284-3.493-2.827
		c0-1.511,1.719-2.814,3.746-2.792c0.474,0.004,0.914,0.08,1.314,0.209c1.101,0.766,1.988,1.245,2.212,2.116
		c0.042,0.176,0.065,0.357,0.065,0.545C254.92,114.715,253.927,115.92,251.075,115.92z M252.918,90.934
		c-9.757,0-17.666,7.909-17.666,17.667c0,9.757,7.909,17.666,17.666,17.666c9.758,0,17.666-7.909,17.666-17.666
		C270.584,98.843,262.676,90.934,252.918,90.934z M252.918,124.854c-8.977,0-16.252-7.276-16.252-16.253s7.275-16.253,16.252-16.253
		s16.253,7.276,16.253,16.253S261.895,124.854,252.918,124.854z"/>
</g>
<g>
	<path fill="#234089" d="M36,162.692c-9.757,0-17.666,7.908-17.666,17.666c0,9.757,7.909,17.666,17.666,17.666
		c9.758,0,17.666-7.909,17.666-17.666C53.666,170.6,45.758,162.692,36,162.692z M39.889,180.364h-2.545c0,4.064,0,9.071,0,9.071
		h-3.77c0,0,0-4.955,0-9.071h-1.793v-3.203h1.793v-2.074c0-1.484,0.705-3.806,3.805-3.806l2.791,0.012v3.11c0,0-1.697,0-2.025,0
		c-0.33,0-0.801,0.164-0.801,0.874v1.884h2.875L39.889,180.364z"/>
</g>
<g>
	<path fill="#A51D31" d="M180.5,162.692c-9.757,0-17.666,7.908-17.666,17.666c0,9.757,7.909,17.666,17.666,17.666
		c9.758,0,17.666-7.909,17.666-17.666C198.166,170.6,190.258,162.692,180.5,162.692z M181.783,184.138
		c-1.055,0-2.044-0.567-2.383-1.215c0,0-0.567,2.246-0.687,2.68c-0.422,1.533-1.664,3.066-1.76,3.19
		c-0.067,0.088-0.217,0.061-0.232-0.056c-0.027-0.194-0.345-2.128,0.029-3.705c0.188-0.791,1.254-5.312,1.254-5.312
		s-0.312-0.622-0.312-1.541c0-1.446,0.839-2.523,1.882-2.523c0.887,0,1.314,0.664,1.314,1.462c0,0.892-0.568,2.226-0.861,3.46
		c-0.244,1.034,0.519,1.878,1.54,1.878c1.847,0,3.091-2.372,3.091-5.185c0-2.136-1.438-3.736-4.058-3.736
		c-2.957,0-4.8,2.207-4.8,4.671c0,0.85,0.251,1.448,0.643,1.911c0.181,0.213,0.206,0.301,0.141,0.545
		c-0.048,0.178-0.153,0.61-0.198,0.78c-0.064,0.249-0.266,0.336-0.489,0.244c-1.361-0.555-1.995-2.047-1.995-3.726
		c0-2.768,2.334-6.089,6.967-6.089c3.723,0,6.174,2.693,6.174,5.586C187.044,181.28,184.917,184.138,181.783,184.138z"/>
</g>
<g>
	<path fill="#42A9DF" d="M108.5,162.692c-9.757,0-17.666,7.908-17.666,17.666c0,9.757,7.909,17.666,17.666,17.666
		c9.758,0,17.666-7.909,17.666-17.666C126.166,170.6,118.258,162.692,108.5,162.692z M114.916,176.896
		c0.008,0.149,0.012,0.298,0.012,0.45c0,4.602-3.504,9.908-9.909,9.908c-1.967,0-3.797-0.576-5.339-1.564
		c0.273,0.031,0.55,0.048,0.831,0.048c1.632,0,3.133-0.556,4.324-1.489c-1.523-0.029-2.81-1.036-3.252-2.42
		c0.212,0.041,0.431,0.062,0.654,0.062c0.318,0,0.626-0.043,0.918-0.121c-1.592-0.322-2.794-1.729-2.794-3.415v-0.043
		c0.47,0.26,1.007,0.416,1.578,0.435c-0.936-0.624-1.549-1.691-1.549-2.899c0-0.638,0.172-1.237,0.471-1.75
		c1.717,2.107,4.284,3.493,7.178,3.638c-0.059-0.254-0.089-0.52-0.089-0.793c0-1.924,1.559-3.481,3.481-3.481
		c1.001,0,1.907,0.422,2.542,1.099c0.793-0.156,1.539-0.446,2.212-0.847c-0.262,0.815-0.812,1.497-1.53,1.928
		c0.704-0.083,1.376-0.271,1.999-0.547C116.188,175.792,115.598,176.405,114.916,176.896z"/>
</g>
<g>
	<path fill="#CB203C" d="M253.647,175.603c-0.233-1.786-1.696-3.004-3.033-2.75c-1.312,0.25-1.805,1.759-1.766,2.57
		c0.087,1.801,1.528,3.036,2.89,3.079C253.1,178.541,253.883,177.391,253.647,175.603z M252.643,182.369
		c-0.4-0.129-0.841-0.205-1.314-0.209c-2.027-0.022-3.746,1.28-3.746,2.792c0,1.542,1.466,2.827,3.493,2.827
		c2.852,0,3.845-1.205,3.845-2.747c0-0.188-0.023-0.37-0.065-0.545C254.631,183.614,253.743,183.135,252.643,182.369z
		 M252.918,162.692c-9.757,0-17.666,7.908-17.666,17.666c0,9.757,7.909,17.666,17.666,17.666c9.758,0,17.666-7.909,17.666-17.666
		C270.584,170.6,262.676,162.692,252.918,162.692z M251.254,188.612c-2.935,0-5.411-1.192-5.411-3.1
		c0-1.938,2.055-3.957,4.988-3.957c0.32,0,0.614-0.002,0.915-0.002c-0.4-0.39-0.725-0.715-0.725-1.306
		c0-0.351,0.111-0.667,0.268-0.965c-0.158,0.01-0.322,0.062-0.49,0.062c-2.409,0-3.812-1.613-3.812-3.734
		c0-2.08,2.136-3.807,4.698-3.807c1.321,0,5.05,0,5.05,0l-1.128,1h-1.327c0.938,1,1.434,1.568,1.434,2.785
		c0,1.117-0.618,1.944-1.491,2.626c-0.854,0.668-1.014,0.946-1.014,1.513c0,0.483,1.018,1.203,1.486,1.554
		c1.631,1.223,1.96,1.995,1.96,3.523C256.654,186.714,254.598,188.612,251.254,188.612z M262.365,175.566h-2.309v2.306h-1.153
		v-2.306h-2.308v-1.154h2.308v-2.309h1.153v2.309h2.309V175.566z"/>
</g>
<g>
	<path fill="#E6E6E6" d="M35.945,235.191c-9.757,0-17.666,7.909-17.666,17.667c0,9.757,7.909,17.665,17.666,17.665
		c9.758,0,17.666-7.908,17.666-17.665C53.611,243.101,45.703,235.191,35.945,235.191z M35.945,269.111
		c-8.977,0-16.252-7.277-16.252-16.253c0-8.977,7.275-16.253,16.252-16.253s16.253,7.276,16.253,16.253
		C52.198,261.833,44.922,269.111,35.945,269.111z M37.155,247.853c0-0.71,0.471-0.874,0.801-0.874c0.328,0,2.025,0,2.025,0v-3.11
		l-2.791-0.012c-3.1,0-3.805,2.321-3.805,3.806v2.074h-1.793v3.203h1.793c0,4.117,0,9.072,0,9.072h3.77c0,0,0-5.008,0-9.072H39.7
		l0.33-3.203h-2.875V247.853z"/>
</g>
<g>
	<path fill="#E6E6E6" d="M116.149,246.188c-0.673,0.4-1.419,0.689-2.212,0.846c-0.635-0.676-1.541-1.098-2.542-1.098
		c-1.923,0-3.481,1.557-3.481,3.48c0,0.273,0.03,0.539,0.089,0.793c-2.894-0.145-5.461-1.529-7.178-3.637
		c-0.299,0.512-0.471,1.111-0.471,1.75c0,1.207,0.613,2.275,1.549,2.898c-0.571-0.018-1.108-0.174-1.578-0.434v0.043
		c0,1.686,1.202,3.091,2.794,3.413c-0.292,0.078-0.6,0.121-0.918,0.121c-0.224,0-0.442-0.021-0.654-0.062
		c0.442,1.385,1.729,2.391,3.252,2.42c-1.191,0.934-2.692,1.49-4.324,1.49c-0.281,0-0.558-0.018-0.831-0.049
		c1.542,0.988,3.372,1.564,5.339,1.564c6.405,0,9.909-5.307,9.909-9.907c0-0.152-0.004-0.301-0.012-0.449
		c0.682-0.492,1.271-1.105,1.738-1.803c-0.623,0.275-1.295,0.463-1.999,0.547C115.337,247.684,115.887,247.002,116.149,246.188z
		 M108.5,235.292c-9.757,0-17.666,7.909-17.666,17.667c0,9.756,7.909,17.666,17.666,17.666c9.758,0,17.666-7.91,17.666-17.666
		C126.166,243.201,118.258,235.292,108.5,235.292z M108.5,269.21c-8.977,0-16.252-7.275-16.252-16.252s7.275-16.253,16.252-16.253
		s16.253,7.276,16.253,16.253S117.477,269.21,108.5,269.21z"/>
</g>
<g>
	<path fill="#E6E6E6" d="M180.851,244.346c-4.633,0-6.967,3.32-6.967,6.088c0,1.68,0.634,3.171,1.995,3.726
		c0.224,0.092,0.425,0.004,0.489-0.244c0.045-0.17,0.15-0.603,0.198-0.78c0.065-0.244,0.04-0.332-0.141-0.545
		c-0.392-0.463-0.643-1.061-0.643-1.91c0-2.465,1.843-4.672,4.8-4.672c2.619,0,4.057,1.602,4.057,3.736
		c0,2.812-1.244,5.185-3.091,5.185c-1.021,0-1.784-0.844-1.54-1.878c0.293-1.234,0.86-2.568,0.86-3.459
		c0-0.799-0.427-1.463-1.313-1.463c-1.043,0-1.882,1.078-1.882,2.523c0,0.92,0.312,1.541,0.312,1.541s-1.066,4.521-1.254,5.312
		c-0.374,1.578-0.057,3.512-0.029,3.705c0.016,0.117,0.165,0.145,0.232,0.057c0.096-0.125,1.338-1.658,1.76-3.191
		c0.119-0.434,0.687-2.68,0.687-2.68c0.339,0.648,1.328,1.215,2.382,1.215c3.134,0,5.261-2.857,5.261-6.679
		C187.025,247.04,184.574,244.346,180.851,244.346z M180.5,235.292c-9.757,0-17.666,7.909-17.666,17.667
		c0,9.756,7.909,17.666,17.666,17.666c9.758,0,17.666-7.91,17.666-17.666C198.166,243.201,190.258,235.292,180.5,235.292z
		 M180.5,269.21c-8.977,0-16.252-7.275-16.252-16.252s7.275-16.253,16.252-16.253s16.253,7.276,16.253,16.253
		S189.477,269.21,180.5,269.21z"/>
</g>
<g>
	<path fill="#E6E6E6" d="M254.694,253.781c-0.469-0.351-1.486-1.07-1.486-1.554c0-0.566,0.16-0.845,1.014-1.513
		c0.873-0.682,1.491-1.259,1.491-2.376c0-1.217-0.496-1.535-1.434-2.535h1.327l1.128-1c0,0-3.729,0-5.05,0
		c-2.562,0-4.698,1.477-4.698,3.557c0,2.121,1.403,3.609,3.812,3.609c0.168,0,0.332-0.114,0.49-0.125
		c-0.156,0.299-0.268,0.584-0.268,0.935c0,0.591,0.324,0.9,0.725,1.289c-0.301,0-0.595-0.006-0.915-0.006
		c-2.934,0-4.988,2.016-4.988,3.953c0,1.908,2.477,3.098,5.411,3.098c3.344,0,5.4-1.898,5.4-3.809
		C256.654,255.777,256.325,255.003,254.694,253.781z M251.738,251.002c-1.361-0.043-2.803-1.277-2.89-3.079
		c-0.039-0.812,0.453-2.32,1.766-2.57c1.337-0.255,2.8,0.964,3.033,2.749C253.883,249.891,253.1,251.042,251.738,251.002z
		 M251.075,260.277c-2.027,0-3.493-1.283-3.493-2.826c0-1.512,1.719-2.814,3.746-2.791c0.474,0.004,0.914,0.08,1.314,0.209
		c1.101,0.766,1.988,1.244,2.212,2.115c0.042,0.176,0.065,0.357,0.065,0.547C254.92,259.072,253.927,260.277,251.075,260.277z
		 M260.057,244.578h-1.153v2.309h-2.308v1.154h2.308v2.306h1.153v-2.306h2.309v-1.154h-2.309V244.578z M252.918,235.292
		c-9.757,0-17.666,7.909-17.666,17.667c0,9.756,7.909,17.666,17.666,17.666c9.758,0,17.666-7.91,17.666-17.666
		C270.584,243.201,262.676,235.292,252.918,235.292z M252.918,269.21c-8.977,0-16.252-7.275-16.252-16.252
		s7.275-16.253,16.252-16.253s16.253,7.276,16.253,16.253S261.895,269.21,252.918,269.21z"/>
</g>
<g>
	<path fill="#B3B3B3" d="M35.945,306.333c-9.757,0-17.666,7.908-17.666,17.666s7.909,17.666,17.666,17.666
		c9.758,0,17.666-7.908,17.666-17.666S45.703,306.333,35.945,306.333z M39.564,324.005H37.02c0,4.064,0,9.072,0,9.072h-3.77
		c0,0,0-4.955,0-9.072h-1.793v-3.203h1.793v-2.074c0-1.484,0.705-3.805,3.805-3.805l2.791,0.012v3.109c0,0-1.697,0-2.025,0
		c-0.33,0-0.801,0.164-0.801,0.875v1.883h2.875L39.564,324.005z"/>
</g>
<g>
	<path fill="#B3B3B3" d="M180.445,306.333c-9.757,0-17.666,7.908-17.666,17.666s7.909,17.666,17.666,17.666
		c9.758,0,17.666-7.908,17.666-17.666S190.203,306.333,180.445,306.333z M181.783,327.779c-1.055,0-2.044-0.566-2.383-1.215
		c0,0-0.567,2.246-0.687,2.68c-0.422,1.533-1.664,3.066-1.76,3.191c-0.067,0.088-0.217,0.061-0.232-0.057
		c-0.027-0.193-0.345-2.127,0.029-3.705c0.188-0.791,1.254-5.312,1.254-5.312s-0.312-0.621-0.312-1.541
		c0-1.445,0.839-2.523,1.882-2.523c0.887,0,1.313,0.664,1.313,1.463c0,0.891-0.567,2.225-0.86,3.459
		c-0.244,1.035,0.519,1.879,1.54,1.879c1.847,0,3.091-2.373,3.091-5.186c0-2.135-1.438-3.736-4.058-3.736
		c-2.957,0-4.8,2.207-4.8,4.672c0,0.85,0.251,1.447,0.643,1.91c0.181,0.213,0.206,0.301,0.141,0.545
		c-0.048,0.178-0.153,0.611-0.198,0.781c-0.064,0.248-0.266,0.336-0.489,0.244c-1.361-0.555-1.995-2.047-1.995-3.727
		c0-2.768,2.334-6.088,6.967-6.088c3.724,0,6.175,2.693,6.175,5.586C187.044,324.921,184.917,327.779,181.783,327.779z"/>
</g>
<g>
	<path fill="#B3B3B3" d="M108.445,306.333c-9.757,0-17.666,7.908-17.666,17.666s7.909,17.666,17.666,17.666
		c9.758,0,17.666-7.908,17.666-17.666S118.203,306.333,108.445,306.333z M114.916,320.539c0.008,0.148,0.012,0.297,0.012,0.449
		c0,4.602-3.504,9.908-9.909,9.908c-1.967,0-3.797-0.576-5.339-1.564c0.273,0.031,0.55,0.049,0.831,0.049
		c1.632,0,3.133-0.557,4.324-1.49c-1.523-0.029-2.81-1.035-3.252-2.42c0.212,0.041,0.431,0.062,0.654,0.062
		c0.318,0,0.626-0.043,0.918-0.121c-1.592-0.322-2.794-1.729-2.794-3.414c0-0.016,0-0.029,0-0.043
		c0.47,0.26,1.007,0.416,1.578,0.434c-0.936-0.623-1.549-1.691-1.549-2.898c0-0.639,0.172-1.238,0.471-1.75
		c1.717,2.107,4.284,3.492,7.178,3.637c-0.059-0.254-0.089-0.52-0.089-0.793c0-1.924,1.559-3.48,3.481-3.48
		c1.001,0,1.907,0.422,2.542,1.098c0.793-0.156,1.539-0.445,2.212-0.846c-0.262,0.814-0.812,1.496-1.53,1.928
		c0.704-0.084,1.376-0.271,1.999-0.547C116.188,319.433,115.598,320.046,114.916,320.539z"/>
</g>
<g>
	<path fill="#B3B3B3" d="M253.593,319.244c-0.233-1.785-1.696-3.004-3.033-2.748c-1.312,0.25-1.805,1.758-1.766,2.57
		c0.087,1.801,1.528,3.035,2.89,3.078C253.045,322.183,253.828,321.033,253.593,319.244z M252.863,306.333
		c-9.757,0-17.666,7.908-17.666,17.666s7.909,17.666,17.666,17.666c9.758,0,17.666-7.908,17.666-17.666
		S262.621,306.333,252.863,306.333z M251.199,332.253c-2.935,0-5.411-1.191-5.411-3.1c0-1.938,2.055-3.957,4.988-3.957
		c0.32,0,0.614-0.002,0.915-0.002c-0.4-0.389-0.725-0.715-0.725-1.305c0-0.352,0.111-0.668,0.268-0.967
		c-0.158,0.012-0.322,0.062-0.49,0.062c-2.409,0-3.812-1.613-3.812-3.734c0-2.08,2.136-3.807,4.698-3.807c1.321,0,5.05,0,5.05,0
		l-1.128,1h-1.327c0.938,1,1.434,1.568,1.434,2.785c0,1.117-0.618,1.945-1.491,2.627c-0.854,0.668-1.014,0.945-1.014,1.512
		c0,0.482,1.018,1.203,1.486,1.555c1.631,1.223,1.96,1.994,1.96,3.521C256.6,330.355,254.543,332.253,251.199,332.253z
		 M262.365,319.208h-2.309v2.305h-1.153v-2.305h-2.308v-1.154h2.308v-2.309h1.153v2.309h2.309V319.208z M252.588,326.011
		c-0.4-0.129-0.841-0.205-1.314-0.209c-2.027-0.023-3.746,1.279-3.746,2.791c0,1.543,1.466,2.826,3.493,2.826
		c2.852,0,3.845-1.205,3.845-2.746c0-0.189-0.023-0.371-0.065-0.547C254.576,327.255,253.688,326.777,252.588,326.011z"/>
</g>
<g>
	<path fill="#B3B3B3" d="M35.514,378.05c-9.757,0-17.666,7.91-17.666,17.667s7.909,17.665,17.666,17.665
		c9.758,0,17.666-7.908,17.666-17.665S45.271,378.05,35.514,378.05z M35.514,411.97c-8.977,0-16.252-7.277-16.252-16.253
		c0-8.977,7.275-16.253,16.252-16.253s16.253,7.276,16.253,16.253C51.767,404.693,44.49,411.97,35.514,411.97z M36.993,390.712
		c0-0.71,0.471-0.874,0.801-0.874c0.328,0,2.025,0,2.025,0v-3.11l-2.791-0.012c-3.1,0-3.805,2.321-3.805,3.806v2.074h-1.793v3.203
		h1.793c0,4.116,0,9.071,0,9.071h3.77c0,0,0-5.008,0-9.071h2.545l0.33-3.203h-2.875V390.712z"/>
</g>
<g>
	<path fill="#B3B3B3" d="M116.149,389.047c-0.673,0.4-1.419,0.689-2.212,0.846c-0.635-0.676-1.541-1.098-2.542-1.098
		c-1.923,0-3.481,1.557-3.481,3.48c0,0.273,0.03,0.539,0.089,0.793c-2.894-0.145-5.461-1.529-7.178-3.637
		c-0.299,0.512-0.471,1.111-0.471,1.75c0,1.207,0.613,2.275,1.549,2.898c-0.571-0.018-1.108-0.174-1.578-0.434v0.043
		c0,1.686,1.202,3.091,2.794,3.413c-0.292,0.078-0.6,0.121-0.918,0.121c-0.224,0-0.442-0.021-0.654-0.062
		c0.442,1.385,1.729,2.391,3.252,2.42c-1.191,0.934-2.692,1.49-4.324,1.49c-0.281,0-0.558-0.018-0.831-0.049
		c1.542,0.988,3.372,1.564,5.339,1.564c6.405,0,9.909-5.307,9.909-9.907c0-0.152-0.004-0.301-0.012-0.449
		c0.682-0.492,1.271-1.105,1.738-1.803c-0.623,0.275-1.295,0.463-1.999,0.547C115.337,390.543,115.887,389.862,116.149,389.047z
		 M108.068,378.152c-9.757,0-17.666,7.908-17.666,17.666c0,9.756,7.909,17.666,17.666,17.666c9.758,0,17.666-7.91,17.666-17.666
		C125.734,386.06,117.826,378.152,108.068,378.152z M108.068,412.07c-8.977,0-16.252-7.275-16.252-16.252
		s7.275-16.253,16.252-16.253s16.253,7.276,16.253,16.253S117.045,412.07,108.068,412.07z"/>
</g>
<g>
	<path fill="#B3B3B3" d="M180.851,387.206c-4.633,0-6.967,3.32-6.967,6.088c0,1.68,0.634,3.171,1.995,3.726
		c0.224,0.092,0.425,0.004,0.489-0.244c0.045-0.17,0.15-0.603,0.198-0.78c0.065-0.244,0.04-0.332-0.141-0.545
		c-0.392-0.463-0.643-1.061-0.643-1.91c0-2.465,1.843-4.672,4.8-4.672c2.619,0,4.057,1.602,4.057,3.736
		c0,2.812-1.244,5.185-3.091,5.185c-1.021,0-1.784-0.844-1.54-1.878c0.293-1.234,0.86-2.568,0.86-3.459
		c0-0.799-0.427-1.463-1.313-1.463c-1.043,0-1.882,1.078-1.882,2.523c0,0.92,0.312,1.541,0.312,1.541s-1.066,4.521-1.254,5.312
		c-0.374,1.578-0.057,3.512-0.029,3.705c0.016,0.117,0.165,0.145,0.232,0.057c0.096-0.125,1.338-1.658,1.76-3.191
		c0.119-0.434,0.687-2.68,0.687-2.68c0.339,0.648,1.328,1.215,2.382,1.215c3.134,0,5.261-2.857,5.261-6.679
		C187.025,389.899,184.574,387.206,180.851,387.206z M180.068,378.152c-9.757,0-17.666,7.908-17.666,17.666
		c0,9.756,7.909,17.666,17.666,17.666c9.758,0,17.666-7.91,17.666-17.666C197.734,386.06,189.826,378.152,180.068,378.152z
		 M180.068,412.07c-8.977,0-16.252-7.275-16.252-16.252s7.275-16.253,16.252-16.253s16.253,7.276,16.253,16.253
		S189.045,412.07,180.068,412.07z"/>
</g>
<g>
	<path fill="#B3B3B3" d="M256.303,387.663c0,0-3.729,0-5.05,0c-2.562,0-4.698,1.477-4.698,3.557c0,2.121,1.403,3.609,3.812,3.609
		c0.168,0,0.332-0.114,0.49-0.125c-0.156,0.299-0.268,0.584-0.268,0.935c0,0.591,0.324,0.9,0.725,1.289
		c-0.301,0-0.595-0.006-0.915-0.006c-2.934,0-4.988,2.016-4.988,3.953c0,1.908,2.477,3.098,5.411,3.098c3.344,0,5.4-1.898,5.4-3.809
		c0-1.527-0.329-2.301-1.96-3.523c-0.469-0.351-1.486-1.07-1.486-1.554c0-0.566,0.16-0.845,1.014-1.513
		c0.873-0.682,1.491-1.259,1.491-2.376c0-1.217-0.496-1.535-1.434-2.535h1.327L256.303,387.663z M254.423,399.843
		c0.042,0.176,0.065,0.357,0.065,0.547c0,1.541-0.993,2.746-3.845,2.746c-2.027,0-3.493-1.283-3.493-2.826
		c0-1.512,1.719-2.814,3.746-2.791c0.474,0.004,0.914,0.08,1.314,0.209C253.312,398.494,254.199,398.972,254.423,399.843z
		 M251.307,393.862c-1.361-0.043-2.803-1.277-2.89-3.079c-0.039-0.812,0.453-2.32,1.766-2.57c1.337-0.255,2.8,0.964,3.033,2.749
		C253.451,392.75,252.668,393.901,251.307,393.862z M260.057,387.437h-1.153v2.309h-2.308v1.154h2.308v2.306h1.153V390.9h2.309
		v-1.154h-2.309V387.437z M252.486,378.152c-9.757,0-17.666,7.908-17.666,17.666c0,9.756,7.909,17.666,17.666,17.666
		c9.758,0,17.666-7.91,17.666-17.666C270.152,386.06,262.244,378.152,252.486,378.152z M252.486,412.07
		c-8.977,0-16.252-7.275-16.252-16.252s7.275-16.253,16.252-16.253s16.253,7.276,16.253,16.253S261.463,412.07,252.486,412.07z"/>
</g>
<g>
	<path fill="#E6E6E6" d="M35.514,449.193c-9.757,0-17.666,7.908-17.666,17.666s7.909,17.666,17.666,17.666
		c9.758,0,17.666-7.908,17.666-17.666S45.271,449.193,35.514,449.193z M39.402,466.865h-2.545c0,4.064,0,9.072,0,9.072h-3.77
		c0,0,0-4.955,0-9.072h-1.793v-3.203h1.793v-2.074c0-1.484,0.705-3.805,3.805-3.805l2.791,0.012v3.109c0,0-1.697,0-2.025,0
		c-0.33,0-0.801,0.164-0.801,0.875v1.883h2.875L39.402,466.865z"/>
</g>
<g>
	<path fill="#E6E6E6" d="M180.014,449.193c-9.757,0-17.666,7.908-17.666,17.666s7.909,17.666,17.666,17.666
		c9.758,0,17.666-7.908,17.666-17.666S189.771,449.193,180.014,449.193z M181.783,470.638c-1.055,0-2.044-0.566-2.383-1.215
		c0,0-0.567,2.246-0.687,2.68c-0.422,1.533-1.664,3.066-1.76,3.191c-0.067,0.088-0.217,0.061-0.232-0.057
		c-0.027-0.193-0.345-2.127,0.029-3.705c0.188-0.791,1.254-5.312,1.254-5.312s-0.312-0.621-0.312-1.541
		c0-1.445,0.839-2.523,1.882-2.523c0.887,0,1.313,0.664,1.313,1.463c0,0.891-0.567,2.225-0.86,3.459
		c-0.244,1.035,0.519,1.879,1.54,1.879c1.847,0,3.091-2.373,3.091-5.186c0-2.135-1.438-3.736-4.058-3.736
		c-2.957,0-4.8,2.207-4.8,4.672c0,0.85,0.251,1.447,0.643,1.91c0.181,0.213,0.206,0.301,0.141,0.545
		c-0.048,0.178-0.153,0.611-0.198,0.781c-0.064,0.248-0.266,0.336-0.489,0.244c-1.361-0.555-1.995-2.047-1.995-3.727
		c0-2.768,2.334-6.088,6.967-6.088c3.724,0,6.175,2.693,6.175,5.586C187.044,467.781,184.917,470.638,181.783,470.638z"/>
</g>
<g>
	<path fill="#E6E6E6" d="M108.014,449.193c-9.757,0-17.666,7.908-17.666,17.666s7.909,17.666,17.666,17.666
		c9.758,0,17.666-7.908,17.666-17.666S117.771,449.193,108.014,449.193z M114.916,463.398c0.008,0.148,0.012,0.297,0.012,0.449
		c0,4.602-3.504,9.908-9.909,9.908c-1.967,0-3.797-0.576-5.339-1.564c0.273,0.031,0.55,0.049,0.831,0.049
		c1.632,0,3.133-0.557,4.324-1.49c-1.523-0.029-2.81-1.035-3.252-2.42c0.212,0.041,0.431,0.062,0.654,0.062
		c0.318,0,0.626-0.043,0.918-0.121c-1.592-0.322-2.794-1.729-2.794-3.414c0-0.016,0-0.029,0-0.043
		c0.47,0.26,1.007,0.416,1.578,0.434c-0.936-0.623-1.549-1.691-1.549-2.898c0-0.639,0.172-1.238,0.471-1.75
		c1.717,2.107,4.284,3.492,7.178,3.637c-0.059-0.254-0.089-0.52-0.089-0.793c0-1.924,1.559-3.48,3.481-3.48
		c1.001,0,1.907,0.422,2.542,1.098c0.793-0.156,1.539-0.445,2.212-0.846c-0.262,0.814-0.812,1.496-1.53,1.928
		c0.704-0.084,1.376-0.271,1.999-0.547C116.188,462.292,115.598,462.906,114.916,463.398z"/>
</g>
<g>
	<path fill="#E6E6E6" d="M250.128,459.355c-1.312,0.25-1.805,1.758-1.766,2.57c0.087,1.801,1.528,3.035,2.89,3.078
		c1.361,0.039,2.145-1.111,1.909-2.9C252.928,460.318,251.465,459.099,250.128,459.355z M250.842,468.662
		c-2.027-0.023-3.746,1.279-3.746,2.791c0,1.543,1.466,2.826,3.493,2.826c2.852,0,3.845-1.205,3.845-2.746
		c0-0.189-0.023-0.371-0.065-0.547c-0.224-0.871-1.111-1.35-2.212-2.115C251.756,468.742,251.315,468.666,250.842,468.662z
		 M252.432,449.193c-9.757,0-17.666,7.908-17.666,17.666s7.909,17.666,17.666,17.666c9.758,0,17.666-7.908,17.666-17.666
		S262.189,449.193,252.432,449.193z M255.227,462.089c0,1.117-0.618,1.945-1.491,2.627c-0.854,0.668-1.014,0.945-1.014,1.512
		c0,0.482,1.018,1.203,1.486,1.555c1.631,1.223,1.96,1.994,1.96,3.521c0,1.91-2.057,3.809-5.4,3.809c-2.935,0-5.411-1.191-5.411-3.1
		c0-1.938,2.055-3.957,4.988-3.957c0.32,0,0.614-0.002,0.915-0.002c-0.4-0.389-0.725-0.715-0.725-1.305
		c0-0.352,0.111-0.668,0.268-0.967c-0.158,0.012-0.322,0.062-0.49,0.062c-2.409,0-3.812-1.613-3.812-3.734
		c0-2.08,2.136-3.807,4.698-3.807c1.321,0,5.05,0,5.05,0l-1.128,1h-1.327C254.73,460.304,255.227,460.873,255.227,462.089z
		 M262.365,462.068h-2.309v2.305h-1.153v-2.305h-2.308v-1.154h2.308v-2.309h1.153v2.309h2.309V462.068z"/>
</g>
<g>
</g>
<g>
</g>
<g>
</g>
<g>
</g>
<g>
</g>
<g>
</g>
<g>
</g>
<g>
</g>
<g>
</g>
<g>
</g>
<g>
</g>
<g>
</g>
<g>
</g>
<g>
</g>
<g>
</g>
</svg>
